PathFileType	4	(X/Y/Z)	s09c0403.trc
DataRate	CameraRate	NumFrames	NumMarkers	Units	OrigDataRate	OrigDataStartFrame	OrigNumFrames
200	200	4	50	mm	200	1250	2000
Frame#	Time	racr			lacr			c7			jug			rlel			rdr			llel			ldr			s2			lic			ric			lasi			rasi			rpsi			lpsi			rgt			lgt			rth1			rth2			rth3			rth4			rlfc			rmfc			rsh1			rsh2			rsh3			rsh4			rlmal			rmmal			rcal			rtoe			rmt5			lth1			lth2			lth4			lth3			llfc			lmfc			llmal			lmmal			lcal			lmt5			lsh1			lsh2			lsh3			lsh4			ltoe			SBIKE			LBIKE			RBIKE			
		X1	Y1	Z1	X2	Y2	Z2	X3	Y3	Z3	X4	Y4	Z4	X5	Y5	Z5	X6	Y6	Z6	X7	Y7	Z7	X8	Y8	Z8	X9	Y9	Z9	X10	Y10	Z10	X11	Y11	Z11	X12	Y12	Z12	X13	Y13	Z13	X14	Y14	Z14	X15	Y15	Z15	X16	Y16	Z16	X17	Y17	Z17	X18	Y18	Z18	X19	Y19	Z19	X20	Y20	Z20	X21	Y21	Z21	X22	Y22	Z22	X23	Y23	Z23	X24	Y24	Z24	X25	Y25	Z25	X26	Y26	Z26	X27	Y27	Z27	X28	Y28	Z28	X29	Y29	Z29	X30	Y30	Z30	X31	Y31	Z31	X32	Y32	Z32	X33	Y33	Z33	X34	Y34	Z34	X35	Y35	Z35	X36	Y36	Z36	X37	Y37	Z37	X38	Y38	Z38	X39	Y39	Z39	X40	Y40	Z40	X41	Y41	Z41	X42	Y42	Z42	X43	Y43	Z43	X44	Y44	Z44	X45	Y45	Z45	X46	Y46	Z46	X47	Y47	Z47	X48	Y48	Z48	X49	Y49	Z49	X50	Y50	Z50	
1250	6.2500	764.951579	1190.070722	-0.032598	771.546851	1200.809035	-378.414334	787.129922	1276.013495	-187.294641	764.653129	1138.767302	-192.402594	538.965671	1053.486290	51.109186	687.223635	906.748746	-51.417496	561.507660	1097.064170	-534.470655	666.745240	897.076731	-438.990736	295.559584	1172.082821	-292.993968	444.587390	1128.486349	-401.136465	398.138146	1164.026715	-109.503050	470.358103	1046.821073	-351.984508	433.372202	1101.284917	-108.074750	315.012662	1203.942054	-230.831813	346.743638	1191.462007	-339.037226	362.228614	1045.160370	-65.020675	375.381552	986.907624	-437.233675	479.121990	963.628621	-71.485259	562.523111	934.076080	-80.829484	614.721950	864.756466	-82.363913	578.976613	957.178636	-103.370057	670.087669	778.206675	-113.367192	649.689375	761.946907	-214.427215	576.625062	736.755103	-83.841500	514.467230	671.945977	-92.498855	430.586752	647.893397	-87.621163	530.252356	650.454163	-120.743811	341.339883	590.453707	-84.324599	346.067483	599.924932	-161.302001	253.777596	611.293190	-118.118402	460.282330	443.375309	-132.624085	387.789012	479.571108	-65.007164	375.361575	858.412629	-435.383980	397.699370	776.453431	-422.248363	432.453477	778.672168	-404.975708	376.297771	689.548202	-417.314973	361.258747	596.910676	-399.282504	359.141170	578.271008	-300.537200	182.021066	277.229267	-418.022397	204.766475	278.101239	-350.547329	110.307791	279.451405	-379.931880	233.646391	152.654851	-431.006056	306.849072	513.504863	-425.955442	288.474619	429.160169	-420.355845	228.994213	363.323856	-421.259001	312.435324	418.442361	-390.108455	321.167014	125.499619	-359.979661	-64.808850	851.198975	-241.436836	21.058254	83.814795	-442.390214	21.066516	84.044678	-44.065890	
1251	6.2550	765.701060	1189.321245	1.349607	771.012555	1200.620276	-376.859611	787.306059	1275.732838	-185.832430	764.230186	1138.436856	-191.136567	539.089801	1053.200623	51.859840	687.315355	906.903789	-50.904886	561.984775	1097.482499	-534.118759	666.724211	897.002396	-439.165617	295.944087	1173.517984	-292.241186	446.147769	1128.979881	-400.274464	397.544190	1164.549250	-108.914658	470.945274	1048.333052	-351.775053	432.736169	1101.734404	-107.557927	315.135874	1205.059615	-230.017699	347.263054	1192.991017	-338.396388	362.016882	1045.313401	-64.836718	376.009126	988.335216	-437.621990	478.107531	964.284225	-70.892297	561.715964	934.537476	-79.347068	614.401962	865.994773	-80.959698	578.420609	958.423640	-101.618511	671.127955	779.984224	-111.458061	651.557585	763.018342	-212.365457	577.966708	736.818879	-82.349086	517.383520	670.499162	-91.247876	433.844915	644.617642	-86.758962	533.071809	649.312264	-119.904262	346.001616	584.914555	-83.956311	350.364753	594.653405	-160.888972	257.926227	602.972568	-117.360432	470.260999	442.915443	-132.559412	396.400842	476.049871	-64.651125	376.388401	859.544000	-435.754411	398.729158	777.574386	-422.863031	433.803666	779.887258	-405.886766	377.493213	690.687473	-417.699772	362.258767	597.623815	-399.990076	361.350141	579.193735	-301.247716	174.952709	282.511877	-417.850630	198.191188	282.889294	-350.281316	103.346377	286.027319	-379.392873	224.026797	157.182851	-431.151790	305.970191	515.420520	-426.307031	285.329795	431.617546	-420.427753	224.095183	367.465039	-421.065591	309.048343	420.337333	-390.178795	311.174392	128.354358	-360.158877	-64.815903	851.219499	-241.354049	21.053577	83.844816	-442.387237	21.076555	84.020075	-44.036598	
1252	6.2600	766.644006	1188.348606	2.522237	770.545502	1200.358396	-375.507803	787.545726	1275.388732	-184.713450	763.747569	1138.181672	-190.146875	539.426394	1053.146893	52.611977	687.415379	906.990743	-50.280371	562.260515	1097.871088	-533.848985	666.755871	896.846133	-439.373355	296.000762	1174.578960	-291.049771	447.646057	1129.528065	-399.376309	397.543992	1165.136757	-108.466205	471.535172	1050.089877	-351.830317	432.330605	1102.073097	-107.224628	315.295484	1206.330387	-228.945404	347.496359	1194.684028	-337.375321	361.943164	1045.571736	-64.620069	376.487887	990.135839	-437.991595	476.823864	964.736733	-70.033448	560.773531	935.067831	-77.919842	613.515691	866.594016	-79.313118	577.763071	959.153718	-99.677948	671.487389	780.799838	-109.532172	652.571841	763.576358	-210.274300	578.445212	735.799260	-80.282766	520.067319	667.917675	-89.375010	436.642523	640.290784	-85.802299	535.864283	647.412808	-118.579181	350.353789	578.510131	-83.604093	354.303704	588.497572	-160.386774	261.789603	593.582143	-116.643898	479.759818	441.988653	-132.686759	404.732070	471.901865	-64.307291	377.793970	860.897609	-435.867769	401.710822	779.987323	-424.039607	435.669401	781.319780	-406.407797	379.605484	692.048489	-417.829085	364.198689	598.430510	-400.626413	363.809514	580.300478	-301.909476	168.411399	288.561532	-417.520104	191.751865	288.431911	-349.793815	96.589589	293.380792	-379.030563	214.999688	162.361131	-431.127861	305.854940	517.663638	-426.579829	282.853900	434.475215	-420.413799	219.845973	372.074718	-420.926478	306.359319	422.606767	-390.295064	301.552330	131.747859	-360.250731	-64.771380	851.254517	-241.259445	21.081487	83.878634	-442.341131	21.102949	84.026058	-43.988369	
1253	6.2650	767.782998	1187.507932	3.089813	770.087986	1200.115629	-374.430848	787.801589	1275.002846	-183.759689	763.212510	1137.788809	-189.251926	539.827865	1053.256380	53.367806	687.341569	907.318269	-49.642302	562.384391	1098.194173	-533.559478	666.766297	896.635936	-439.471354	296.054113	1176.253084	-289.862947	449.072644	1130.127228	-398.447003	397.569511	1165.809520	-107.337247	471.993149	1051.923580	-351.896575	432.136282	1102.598949	-106.830553	315.448984	1207.619080	-227.680071	347.758571	1196.540524	-336.188983	361.898358	1045.878539	-64.248324	376.990528	992.109875	-438.153536	475.486815	964.830494	-69.218408	559.531455	935.052333	-76.448666	612.088378	866.587484	-77.489580	576.766535	959.332404	-97.838974	671.008632	780.737636	-107.609812	652.753447	763.383647	-208.282435	578.703256	733.844892	-78.087903	521.870957	664.508991	-88.029277	439.019232	634.966015	-84.839921	538.108994	644.447257	-117.301865	354.326422	571.283014	-83.200677	357.896024	581.356883	-159.855692	265.319472	583.221950	-116.020924	489.010820	440.338981	-132.362843	412.870395	467.071907	-64.016866	379.519841	862.358329	-435.780446	404.108143	781.669980	-424.200587	438.374285	783.310604	-407.125700	382.644520	693.626506	-417.797867	367.074673	599.331738	-401.140280	367.466739	581.422983	-302.590442	162.549929	295.145697	-417.255217	186.081790	294.483332	-349.325613	90.957058	301.471274	-378.461785	206.345738	167.984808	-430.935747	306.550695	520.282448	-426.919465	281.175127	437.720501	-420.470352	216.412923	377.168620	-420.698945	304.410573	425.215396	-390.439941	292.176509	135.506118	-360.395066	-64.757313	851.269768	-241.135786	21.103698	83.889841	-442.284292	21.115491	84.060692	-43.961484	
